<?xml version="1.0" encoding="utf-8"?>
<!-- Generator: Adobe Illustrator 27.9.0, SVG Export Plug-In . SVG Version: 6.00 Build 0)  -->
<svg version="1.1" id="Layer_1" xmlns="http://www.w3.org/2000/svg" xmlns:xlink="http://www.w3.org/1999/xlink" x="0px" y="0px"
	 viewBox="0 0 64 64" style="enable-background:new 0 0 64 64;" xml:space="preserve">
<style>
	path { fill: #0000FF; }

	@media (prefers-color-scheme: dark) {
		path {
			fill: #00ff41;
		}
	}
</style>
<g>
	<path class="st0" d="M7.3,22.5v2.4c-0.9,0.2-1.6,0.6-2.1,1c-0.5,0.4-0.9,1-1.2,1.7c-0.3,0.7-0.4,1.5-0.4,2.5c1.2,0,2.1,0.3,2.6,1
		c0.6,0.7,0.8,1.4,0.8,2.1c0,0.9-0.3,1.7-0.9,2.3S4.8,36.5,4,36.5c-1.1,0-2-0.5-2.8-1.4C0.4,34.2,0,32.9,0,31.3c0-1.4,0.3-2.8,0.9-4
		s1.5-2.3,2.5-3.2C4.5,23.3,5.8,22.7,7.3,22.5z M16.7,22.5v2.4c-0.9,0.2-1.6,0.6-2.1,1c-0.5,0.4-0.9,1-1.2,1.7
		c-0.3,0.7-0.4,1.5-0.4,2.5c1.2,0,2.1,0.3,2.6,1c0.6,0.7,0.9,1.4,0.9,2.1c0,0.9-0.3,1.7-0.9,2.3c-0.6,0.6-1.4,0.9-2.2,0.9
		c-1.1,0-2-0.5-2.8-1.4c-0.8-0.9-1.2-2.2-1.2-3.8c0-1.4,0.3-2.8,0.9-4c0.6-1.2,1.5-2.3,2.5-3.2C13.9,23.3,15.2,22.7,16.7,22.5z"/>
	<path class="st0" d="M30.2,41.5l0-6.7l-5.1,3.6l-1.8-3.1l5.9-2.9l-5.9-2.9l1.8-3.1l5,3.6l0-6.7h3.6l0,6.7l5.1-3.6l1.8,3l-5.9,2.9
		l5.9,2.9l-1.8,3.1l-5.1-3.7l0,6.7H30.2z"/>
	<path class="st0" d="M47.3,36.5v-2.4c0.9-0.2,1.6-0.6,2.1-1c0.5-0.4,0.9-1,1.2-1.7c0.3-0.7,0.4-1.5,0.4-2.5c-1.2,0-2.1-0.3-2.6-1
		c-0.6-0.7-0.8-1.4-0.8-2.1c0-0.9,0.3-1.7,0.9-2.3c0.6-0.6,1.4-0.9,2.2-0.9c1.1,0,2,0.5,2.8,1.4c0.8,0.9,1.2,2.2,1.2,3.8
		c0,1.4-0.3,2.8-0.9,4c-0.6,1.2-1.5,2.3-2.5,3.2C50.1,35.8,48.8,36.3,47.3,36.5z M56.7,36.5v-2.4c0.9-0.2,1.6-0.6,2.1-1
		c0.5-0.4,0.9-1,1.2-1.7c0.3-0.7,0.4-1.5,0.4-2.5c-1.2,0-2.1-0.3-2.6-1c-0.6-0.7-0.8-1.4-0.8-2.1c0-0.9,0.3-1.7,0.9-2.3
		s1.3-0.9,2.2-0.9c1.1,0,2,0.5,2.8,1.4c0.8,0.9,1.2,2.2,1.2,3.8c0,1.4-0.3,2.8-0.9,4c-0.6,1.2-1.5,2.3-2.5,3.2
		C59.5,35.8,58.2,36.3,56.7,36.5z"/>
</g>
</svg>
